PathFileType	4	(X/Y/Z)	Run_300 02
DataRate	CameraRate	NumFrames	NumMarkers	Units	OrigDataRate	OrigDataStartFrame	OrigNumFrames
100	100	7	42	mm	100	420	128
Frame#	Time	RASI			LPSI			RPSI			RTH1			RTH2			RTH3			LTH1			LTH2			LTH3			RTB1			RTB2			RTB3			LTB1			LTB2			LTB3			RCAL			RTOE			RMT5			LCAL			LTOE			LMT5			LACR			RACR			CLAV			C7			RUA1			RUA2			RUA3			RLEL			RMEL			LUA1			LUA2			LUA3			LLEL			LMEL			RFAsuperior			RFAradius			RFAulna			LFAsuperior			LFAradius			LFAulna			LASI		
		X1	Y1	Z1	X2	Y2	Z2	X3	Y3	Z3	X4	Y4	Z4	X5	Y5	Z5	X6	Y6	Z6	X7	Y7	Z7	X8	Y8	Z8	X9	Y9	Z9	X10	Y10	Z10	X11	Y11	Z11	X12	Y12	Z12	X13	Y13	Z13	X14	Y14	Z14	X15	Y15	Z15	X16	Y16	Z16	X17	Y17	Z17	X18	Y18	Z18	X19	Y19	Z19	X20	Y20	Z20	X21	Y21	Z21	X22	Y22	Z22	X23	Y23	Z23	X24	Y24	Z24	X25	Y25	Z25	X26	Y26	Z26	X27	Y27	Z27	X28	Y28	Z28	X29	Y29	Z29	X30	Y30	Z30	X31	Y31	Z31	X32	Y32	Z32	X33	Y33	Z33	X34	Y34	Z34	X35	Y35	Z35	X36	Y36	Z36	X37	Y37	Z37	X38	Y38	Z38	X39	Y39	Z39	X40	Y40	Z40	X41	Y41	Z41	X42	Y42	Z42	

420	  4.200000	956.989441	1012.041243	-225.482358	823.435220	1068.203816	-423.712187	806.911048	1065.144393	-313.414881	887.466269	896.919310	-175.604450	883.773207	743.652615	-213.087409	976.770433	610.384322	-220.465904	945.601863	875.365319	-520.150936	886.351705	717.964445	-492.700155	955.581457	592.397735	-498.062848	1034.427093	368.307498	-309.282344	949.413758	337.982862	-241.458241	945.656789	199.103178	-333.973984	898.574980	403.222745	-448.606530	773.508880	462.348436	-500.247868	683.740055	372.961869	-458.199929	786.227276	100.855052	-340.518148	1028.103920	 72.364189	-369.562709	980.250907	 49.771318	-273.117310	526.058513	459.998872	-426.952888	557.842960	226.137913	-454.941233	513.827858	278.759719	-544.224630	964.976623	1497.846698	-497.491187	966.829680	1466.060600	-169.681780	1028.053434	1440.093497	-300.195990	913.546603	1515.791180	-337.757058	847.308155	1377.844898	-109.752055	882.592122	1314.750339	-79.408639	803.604343	1249.884372	-41.820892	762.186553	1198.588064	-16.841658	762.884661	1169.500799	-101.129774	862.912336	1404.727912	-550.449957	887.435257	1326.889786	-577.521023	811.542613	1267.936622	-602.912792	789.348225	1204.525825	-624.567409	766.741767	1187.657303	-538.208911	841.077601	1120.631722	-10.390613	988.036766	1048.975596	-92.376214	951.333340	1007.859966	-51.619483	843.504969	1136.263333	-614.860694	998.963791	1094.163248	-509.480805	981.898847	1037.898424	-551.298955	981.830281	1001.374525	-475.504732	
421	  4.210000	955.197674	1009.754514	-223.730729	820.752270	1066.247512	-422.341395	804.763461	1063.612699	-311.968166	884.989672	894.416492	-176.061739	876.870561	741.500698	-213.409155	965.782452	605.275865	-221.178006	942.369669	874.442783	-522.184062	893.323626	715.798002	-493.684860	969.606832	593.500269	-499.731967	1015.786359	361.552712	-310.928168	928.691715	334.365300	-242.023025	919.509547	195.794518	-334.374118	920.689251	403.892425	-449.534017	794.266945	459.810852	-501.768462	706.538309	369.194354	-458.658302	756.343535	101.539103	-340.726431	998.068180	 71.954409	-369.517732	950.085136	 49.579036	-273.016418	544.868906	452.108763	-428.283328	587.037180	219.668034	-455.001428	541.864648	270.010390	-544.932422	963.155355	1495.255016	-496.999480	968.176742	1461.965140	-169.361180	1027.442992	1436.717806	-300.341268	912.130884	1512.838960	-337.154679	853.875363	1368.962762	-110.053217	890.168345	1307.905000	-78.088483	815.450812	1238.696102	-39.234140	777.916465	1185.142484	-12.789652	777.133945	1156.186972	-97.150985	860.031347	1402.550432	-549.115798	883.439160	1324.037652	-575.383282	806.288984	1266.094194	-598.905644	783.691625	1202.614003	-620.938715	762.711454	1185.611102	-534.215715	859.383980	1108.859041	 -9.156043	1003.767567	1036.803903	-95.224322	968.160454	996.408839	-52.564524	835.133465	1131.086028	-613.408284	988.410190	1075.117895	-511.066418	967.412105	1022.188772	-553.911770	979.005467	999.741531	-475.205650	
422	  4.220000	953.787964	1009.293604	-221.798704	818.504063	1065.933103	-421.182678	803.062831	1063.874859	-310.486189	882.309805	893.349648	-176.241077	869.098008	740.799982	-212.959716	953.002232	601.514190	-221.685275	939.556115	874.073050	-523.912833	900.549720	715.308231	-495.303585	983.535829	596.503968	-500.984082	995.292865	356.401354	-312.326666	906.891079	332.093191	-242.734191	893.033745	193.973502	-334.885649	943.158720	406.146232	-450.384830	814.894453	457.098817	-503.119354	729.818818	364.740637	-458.732072	726.644701	102.482124	-340.993423	968.111199	 71.858311	-369.659061	920.002970	 49.606336	-273.147147	563.814389	441.873134	-429.765926	618.018586	211.543240	-454.214418	570.478766	258.565861	-544.497920	961.127378	1494.057611	-496.397542	970.518534	1459.197381	-169.134408	1027.004816	1434.823932	-300.700318	910.768228	1511.454212	-336.003123	860.325057	1362.289322	-110.413973	898.387620	1303.032917	-77.355575	827.668130	1230.357739	-37.253490	793.813615	1174.934154	 -9.463588	791.377660	1145.979484	-94.060353	856.779464	1402.070753	-547.832148	878.994758	1323.035859	-573.720906	800.313236	1266.594535	-595.381354	776.907703	1203.325491	-618.002235	757.402946	1186.103291	-530.906286	877.872390	1100.663482	 -9.024503	1020.067895	1029.726094	-99.823602	986.137722	989.482938	-55.285804	825.902126	1129.141790	-612.437024	977.343884	1061.746558	-513.800880	952.320905	1011.568669	-557.867863	976.614465	999.742382	-475.121001	
423	  4.230000	952.820443	1010.035476	-220.403085	816.050394	1067.207610	-420.370981	801.820681	1065.358090	-309.421714	879.634474	893.581098	-176.347408	860.585622	741.359341	-212.211717	938.841359	599.109911	-222.076493	938.032363	874.896238	-525.226228	907.933979	716.773397	-497.569276	997.106853	601.550322	-501.961700	972.998353	352.546602	-313.044111	884.045736	330.853567	-243.272903	866.048449	193.151128	-335.105902	965.335251	410.128233	-450.684740	835.035037	454.668393	-504.243297	753.580667	359.782803	-458.467864	697.121016	103.803149	-341.213406	938.215034	 71.715840	-369.705251	889.893787	 49.608720	-273.289968	583.142678	429.378144	-431.176936	650.416282	202.180711	-452.403406	599.938391	244.936459	-543.079246	958.893369	1494.189408	-495.991509	973.500421	1458.260112	-169.157775	1026.861026	1434.747920	-301.213260	909.925892	1511.953717	-334.386231	866.738886	1358.278227	-109.136038	907.308579	1299.897278	-77.669083	839.767648	1224.979897	-36.002406	808.919522	1168.192696	 -7.191323	804.773865	1139.347407	-92.081697	852.823623	1403.525596	-546.379702	873.608489	1324.210368	-572.719865	793.292499	1269.448427	-592.681329	768.455972	1206.652081	-615.971142	750.288387	1189.294930	-528.415313	895.114352	1095.910138	 -9.929787	1036.284558	1029.129740	-105.881415	1004.717972	988.022778	-60.075101	814.968439	1130.091325	-611.958518	966.508085	1055.787400	-517.797185	937.284628	1007.129456	-561.801328	974.019208	1001.330425	-475.378601	
424	  4.240000	952.399554	1011.591394	-219.799475	813.744187	1069.743944	-419.712964	801.042636	1067.706712	-308.637342	877.044199	894.888605	-176.474796	851.476992	743.131165	-211.466035	923.476385	597.941291	-222.436861	937.888914	877.571935	-526.101639	915.234282	720.206297	-500.160261	1009.979812	608.604488	-502.655652	949.038258	349.705614	-313.211657	859.857779	330.333232	-243.670319	838.401158	192.940000	-335.079997	986.634723	415.726643	-450.156318	854.278681	452.802756	-504.910761	777.765575	354.483480	-457.999423	667.641793	105.617541	-341.242497	908.249103	 71.475746	-369.468866	859.629081	 49.609492	-273.332895	602.889519	414.708975	-432.251685	684.278314	192.014658	-449.555589	630.849470	229.716139	-540.911277	956.486503	1495.752972	-495.914251	976.681885	1459.477349	-169.568728	1027.050492	1436.462350	-301.928190	909.533175	1514.029655	-332.906541	873.418090	1357.416871	-106.072191	916.324129	1298.892495	-78.905832	851.219916	1222.568894	-35.453304	822.665807	1164.675368	 -6.130302	816.870661	1136.302518	-91.241754	848.105573	1407.132704	-544.712953	867.128555	1327.785413	-572.334881	785.213291	1274.776720	-590.991755	758.470539	1212.515662	-614.652398	741.589614	1195.158230	-526.654712	910.824774	1094.862282	-11.955472	1051.922992	1035.244306	-112.915247	1023.409572	992.305595	-66.650121	802.583298	1133.984095	-611.742246	956.307549	1057.497375	-522.514628	923.126619	1008.954071	-564.156239	971.572724	1004.181707	-475.782935	
425	  4.250000	952.631708	1013.996040	-219.739540	812.412396	1073.241854	-418.953536	800.796174	1070.895225	-307.735934	874.488460	897.142228	-176.572059	842.077527	746.196577	-210.742182	907.127344	598.091910	-222.860276	938.615270	882.204186	-526.654869	922.195946	725.221737	-502.543745	1021.755067	617.280866	-502.937610	923.817001	348.101516	-313.249891	834.350722	330.733628	-244.159617	810.383471	193.488664	-335.092187	1006.740112	422.542831	-449.002183	872.409419	451.354339	-504.881824	802.141546	348.907203	-457.303632	638.259881	108.221832	-340.985759	878.194909	 71.257717	-369.144620	829.215722	 49.728264	-273.365460	622.990644	398.001669	-432.653069	719.860875	181.464932	-446.048130	663.663795	213.584073	-538.218753	953.880973	1498.858319	-496.071935	979.769545	1462.837278	-170.351872	1027.522859	1439.715435	-302.972053	909.266031	1517.218432	-332.076492	880.246009	1359.628173	-102.559969	924.606644	1300.481927	-80.528734	861.768556	1222.847976	-35.517124	835.033252	1163.912984	 -6.174070	827.759586	1136.401923	-91.439343	842.909577	1412.797790	-542.962034	859.848152	1333.669633	-572.347065	776.425532	1282.549719	-590.113785	747.664652	1220.805345	-613.618274	732.124542	1203.465960	-525.392337	925.531642	1097.914076	-15.167873	1066.613615	1047.044981	-120.544752	1041.787922	1001.784059	-74.373367	790.063341	1141.248614	-611.492101	946.693513	1065.547173	-527.091266	910.563851	1016.141724	-564.794225	970.100479	1007.996880	-476.087105	
426	  4.260000	953.583695	1017.433488	-219.734224	812.288734	1077.617624	-417.963835	801.217870	1074.995755	-306.492460	872.163305	900.254418	-176.614286	832.808220	750.615691	-209.992199	890.201187	599.818796	-223.451167	939.722929	888.402877	-527.105831	928.616154	731.301777	-504.213281	1032.124564	627.020949	-502.764072	897.925098	348.321415	-313.384702	808.053275	332.577609	-244.826783	782.604250	195.301487	-335.297462	1025.599103	430.082277	-447.792605	889.495491	449.918783	-504.073345	826.459133	343.026037	-456.146876	609.302364	112.144509	-340.435168	848.147396	 71.096106	-369.277669	798.757277	 49.973800	-273.576731	643.585602	379.457268	-432.027505	757.239917	170.946459	-442.470294	698.353048	197.173684	-535.125228	951.072281	1503.433705	-496.280135	982.612243	1468.059700	-171.379663	1028.176774	1444.291421	-304.438767	908.964833	1521.326044	-331.904300	886.582701	1364.160145	-100.149671	931.755153	1304.574114	-82.083711	871.494475	1225.323616	-36.121190	846.316026	1165.422897	 -7.040666	837.894084	1138.954217	-92.556330	837.675558	1420.166167	-541.238491	852.292839	1341.511875	-572.499449	767.500449	1292.396067	-589.570120	736.873475	1231.276671	-612.483919	722.723093	1213.847355	-524.308831	939.588142	1104.770764	-19.371261	1080.015271	1062.882256	-128.603072	1059.418246	1015.335817	-82.688226	778.721669	1151.976729	-611.041598	937.472212	1077.803727	-530.795381	899.911974	1027.258146	-564.901059	969.834764	1012.694448	-476.174814	
